<mxfile host="app.diagrams.net" agent="Mozilla/5.0 (Windows NT 10.0; Win64; x64) AppleWebKit/537.36 (KHTML, like Gecko) Chrome/127.0.0.0 Safari/537.36" version="24.7.10">
  <diagram name="Página-1" id="PGc68x9tAm3rcEp6IMOr">
    <mxGraphModel dx="819" dy="426" grid="1" gridSize="10" guides="1" tooltips="1" connect="1" arrows="1" fold="1" page="1" pageScale="1" pageWidth="827" pageHeight="1169" math="0" shadow="0">
      <root>
        <mxCell id="0" />
        <mxCell id="1" parent="0" />
        <mxCell id="3u-8YnrqqDjTBta4g4wl-7" style="edgeStyle=orthogonalEdgeStyle;rounded=0;orthogonalLoop=1;jettySize=auto;html=1;exitX=0.5;exitY=1;exitDx=0;exitDy=0;entryX=0.5;entryY=0;entryDx=0;entryDy=0;" edge="1" parent="1" source="3u-8YnrqqDjTBta4g4wl-1">
          <mxGeometry relative="1" as="geometry">
            <mxPoint x="400" y="330" as="targetPoint" />
          </mxGeometry>
        </mxCell>
        <mxCell id="3u-8YnrqqDjTBta4g4wl-8" style="edgeStyle=orthogonalEdgeStyle;rounded=0;orthogonalLoop=1;jettySize=auto;html=1;exitX=0;exitY=0.5;exitDx=0;exitDy=0;entryX=0.5;entryY=0;entryDx=0;entryDy=0;" edge="1" parent="1" source="3u-8YnrqqDjTBta4g4wl-1">
          <mxGeometry relative="1" as="geometry">
            <mxPoint x="190" y="330" as="targetPoint" />
            <Array as="points">
              <mxPoint x="300" y="200" />
              <mxPoint x="300" y="280" />
              <mxPoint x="190" y="280" />
            </Array>
          </mxGeometry>
        </mxCell>
        <mxCell id="3u-8YnrqqDjTBta4g4wl-9" style="edgeStyle=orthogonalEdgeStyle;rounded=0;orthogonalLoop=1;jettySize=auto;html=1;exitX=1;exitY=0.5;exitDx=0;exitDy=0;entryX=0.5;entryY=0;entryDx=0;entryDy=0;" edge="1" parent="1" source="3u-8YnrqqDjTBta4g4wl-1">
          <mxGeometry relative="1" as="geometry">
            <mxPoint x="610" y="330" as="targetPoint" />
            <Array as="points">
              <mxPoint x="500" y="200" />
              <mxPoint x="500" y="280" />
              <mxPoint x="610" y="280" />
            </Array>
          </mxGeometry>
        </mxCell>
        <mxCell id="3u-8YnrqqDjTBta4g4wl-1" value="iPhone&lt;br&gt;(classe)" style="rounded=0;whiteSpace=wrap;html=1;fillColor=#e1d5e7;strokeColor=#9673a6;" vertex="1" parent="1">
          <mxGeometry x="340" y="170" width="120" height="60" as="geometry" />
        </mxCell>
        <mxCell id="3u-8YnrqqDjTBta4g4wl-11" value="&lt;div&gt;«interface»&lt;br&gt;&lt;b&gt;Reprodutor Musical&amp;nbsp;&lt;/b&gt;&lt;br&gt;&lt;/div&gt;" style="shape=process;whiteSpace=wrap;html=1;backgroundOutline=1;fillColor=#d5e8d4;strokeColor=#82b366;" vertex="1" parent="1">
          <mxGeometry x="130" y="330" width="120" height="60" as="geometry" />
        </mxCell>
        <mxCell id="3u-8YnrqqDjTBta4g4wl-12" value="«interface»&lt;br&gt;&lt;b&gt;Aparelho Telefônico&lt;/b&gt;" style="shape=process;whiteSpace=wrap;html=1;backgroundOutline=1;fillColor=#d5e8d4;strokeColor=#82b366;" vertex="1" parent="1">
          <mxGeometry x="340" y="330" width="120" height="60" as="geometry" />
        </mxCell>
        <mxCell id="3u-8YnrqqDjTBta4g4wl-13" value="«interface»&lt;br&gt;&lt;b&gt;Navegador Internet&lt;/b&gt;" style="shape=process;whiteSpace=wrap;html=1;backgroundOutline=1;fillColor=#d5e8d4;strokeColor=#82b366;" vertex="1" parent="1">
          <mxGeometry x="550" y="330" width="120" height="60" as="geometry" />
        </mxCell>
        <mxCell id="3u-8YnrqqDjTBta4g4wl-15" value="&lt;p style=&quot;line-height: 83%;&quot;&gt;&lt;font style=&quot;font-size: 7px;&quot;&gt;&lt;b&gt;+tocar()&lt;br&gt;+pausar()&lt;br&gt;+selecionarMusica(String musica)&lt;/b&gt;&lt;/font&gt;&lt;/p&gt;" style="rounded=0;whiteSpace=wrap;html=1;fillColor=#d5e8d4;strokeColor=#82b366;" vertex="1" parent="1">
          <mxGeometry x="130" y="390" width="120" height="40" as="geometry" />
        </mxCell>
        <mxCell id="3u-8YnrqqDjTBta4g4wl-16" value="&lt;p style=&quot;line-height: 142%; font-size: 7px;&quot;&gt;&lt;font style=&quot;font-size: 7px;&quot;&gt;&lt;b&gt;+ligar(String numero)&lt;br&gt;+atender()&lt;br&gt;&lt;/b&gt;&lt;/font&gt;&lt;b style=&quot;background-color: initial;&quot;&gt;+iniciarCorreioVoz()&lt;/b&gt;&lt;/p&gt;&lt;p&gt;&lt;/p&gt;" style="rounded=0;whiteSpace=wrap;html=1;fillColor=#d5e8d4;strokeColor=#82b366;" vertex="1" parent="1">
          <mxGeometry x="340" y="390" width="120" height="40" as="geometry" />
        </mxCell>
        <mxCell id="3u-8YnrqqDjTBta4g4wl-17" value="&lt;p style=&quot;line-height: 83%;&quot;&gt;&lt;font style=&quot;font-size: 7px;&quot;&gt;&lt;b&gt;+exibirPagina(String url)&lt;br&gt;+adicionarAba()&lt;br&gt;+atualizarPagina()&lt;/b&gt;&lt;/font&gt;&lt;/p&gt;" style="rounded=0;whiteSpace=wrap;html=1;fillColor=#d5e8d4;strokeColor=#82b366;" vertex="1" parent="1">
          <mxGeometry x="550" y="390" width="120" height="40" as="geometry" />
        </mxCell>
        <mxCell id="3u-8YnrqqDjTBta4g4wl-18" value="&lt;font style=&quot;font-size: 9px; background-color: rgb(195, 171, 208);&quot;&gt;A classe iPhone implementa os 3 métodos, não foi utilizado herança de classe visto que o java não permite herança múltipla, e o iPhone é um objeto que deverá possuir funcionalidades distintas que serão herdadas de Interfaces diferentes simultaneamente.&lt;/font&gt;" style="text;html=1;align=center;verticalAlign=middle;whiteSpace=wrap;rounded=0;" vertex="1" parent="1">
          <mxGeometry x="500" y="140" width="190" height="70" as="geometry" />
        </mxCell>
        <mxCell id="3u-8YnrqqDjTBta4g4wl-21" value="" style="endArrow=none;dashed=1;html=1;dashPattern=1 3;strokeWidth=2;rounded=0;" edge="1" parent="1">
          <mxGeometry width="50" height="50" relative="1" as="geometry">
            <mxPoint x="500" y="280" as="sourcePoint" />
            <mxPoint x="610" y="280" as="targetPoint" />
          </mxGeometry>
        </mxCell>
        <mxCell id="3u-8YnrqqDjTBta4g4wl-23" value="" style="endArrow=none;dashed=1;html=1;dashPattern=1 3;strokeWidth=2;rounded=0;" edge="1" parent="1">
          <mxGeometry width="50" height="50" relative="1" as="geometry">
            <mxPoint x="500" y="280" as="sourcePoint" />
            <mxPoint x="500" y="200" as="targetPoint" />
          </mxGeometry>
        </mxCell>
        <mxCell id="3u-8YnrqqDjTBta4g4wl-24" value="" style="endArrow=none;dashed=1;html=1;dashPattern=1 3;strokeWidth=2;rounded=0;" edge="1" parent="1">
          <mxGeometry width="50" height="50" relative="1" as="geometry">
            <mxPoint x="460" y="200" as="sourcePoint" />
            <mxPoint x="500" y="200" as="targetPoint" />
          </mxGeometry>
        </mxCell>
        <mxCell id="3u-8YnrqqDjTBta4g4wl-25" value="" style="endArrow=none;dashed=1;html=1;dashPattern=1 3;strokeWidth=2;rounded=0;" edge="1" parent="1">
          <mxGeometry width="50" height="50" relative="1" as="geometry">
            <mxPoint x="610" y="320" as="sourcePoint" />
            <mxPoint x="610" y="280" as="targetPoint" />
          </mxGeometry>
        </mxCell>
        <mxCell id="3u-8YnrqqDjTBta4g4wl-26" value="" style="endArrow=none;dashed=1;html=1;dashPattern=1 3;strokeWidth=2;rounded=0;" edge="1" parent="1">
          <mxGeometry width="50" height="50" relative="1" as="geometry">
            <mxPoint x="400" y="320" as="sourcePoint" />
            <mxPoint x="399.71" y="230" as="targetPoint" />
          </mxGeometry>
        </mxCell>
        <mxCell id="3u-8YnrqqDjTBta4g4wl-27" value="" style="endArrow=none;dashed=1;html=1;dashPattern=1 3;strokeWidth=2;rounded=0;" edge="1" parent="1">
          <mxGeometry width="50" height="50" relative="1" as="geometry">
            <mxPoint x="300" y="280" as="sourcePoint" />
            <mxPoint x="300" y="200" as="targetPoint" />
          </mxGeometry>
        </mxCell>
        <mxCell id="3u-8YnrqqDjTBta4g4wl-28" value="" style="endArrow=none;dashed=1;html=1;dashPattern=1 3;strokeWidth=2;rounded=0;" edge="1" parent="1">
          <mxGeometry width="50" height="50" relative="1" as="geometry">
            <mxPoint x="190" y="280" as="sourcePoint" />
            <mxPoint x="300" y="280" as="targetPoint" />
          </mxGeometry>
        </mxCell>
        <mxCell id="3u-8YnrqqDjTBta4g4wl-30" value="" style="endArrow=none;dashed=1;html=1;dashPattern=1 3;strokeWidth=2;rounded=0;" edge="1" parent="1">
          <mxGeometry width="50" height="50" relative="1" as="geometry">
            <mxPoint x="190" y="320" as="sourcePoint" />
            <mxPoint x="190" y="280" as="targetPoint" />
          </mxGeometry>
        </mxCell>
        <mxCell id="3u-8YnrqqDjTBta4g4wl-31" value="" style="endArrow=none;dashed=1;html=1;dashPattern=1 3;strokeWidth=2;rounded=0;" edge="1" parent="1">
          <mxGeometry width="50" height="50" relative="1" as="geometry">
            <mxPoint x="300" y="200" as="sourcePoint" />
            <mxPoint x="340" y="200" as="targetPoint" />
          </mxGeometry>
        </mxCell>
      </root>
    </mxGraphModel>
  </diagram>
</mxfile>
